<svg width="36" height="36" viewBox="0 0 36 36" fill="none" xmlns="http://www.w3.org/2000/svg">
<rect width="36" height="36" fill="#F3BA2F"/>
<path d="M20.3103 25.931V28.6207L17.9655 30L15.6896 28.6207V25.931L17.9655 27.3103L20.3103 25.931ZM7.75861 16.6207L10.0345 18V22.6207L13.9655 24.9655V27.6552L7.75861 24V16.6207ZM28.1724 16.6207V24L21.8965 27.6552V24.9655L25.8276 22.6207V18L28.1724 16.6207ZM21.8965 12.9655L24.2414 14.3448V17.0345L20.3103 19.3793V24.069L18.0345 25.4483L15.7586 24.069V19.3793L11.6896 17.0345V14.3448L14.0345 12.9655L17.9655 15.3103L21.8965 12.9655ZM11.6896 18.9655L13.9655 20.3448V23.0345L11.6896 21.6552V18.9655ZM24.2414 18.9655V21.6552L21.9655 23.0345V20.3448L24.2414 18.9655ZM10.0345 10.6207L12.3793 12L10.0345 13.3793V16.069L7.75861 14.6897V12L10.0345 10.6207ZM25.8965 10.6207L28.2414 12V14.6897L25.8965 16.069V13.3793L23.6207 12L25.8965 10.6207ZM17.9655 10.6207L20.3103 12L17.9655 13.3793L15.6896 12L17.9655 10.6207ZM17.9655 6L24.2414 9.65517L21.9655 11.0345L18.0345 8.68966L14.0345 11.0345L11.7586 9.65517L17.9655 6Z" fill="white"/>
</svg>
