<svg width="36" height="36" viewBox="0 0 36 36" fill="none" xmlns="http://www.w3.org/2000/svg">
<rect width="36" height="36" fill="#F7931A"/>
<path d="M25.7665 15.8442C26.1123 13.5325 24.3523 12.2899 21.9457 11.4609L22.7264 8.32956L20.8202 7.85459L20.0602 10.9035C19.5591 10.7785 19.0445 10.6608 18.533 10.544L19.2985 7.47497L17.3936 7L16.6124 10.1304C16.1977 10.0359 15.7904 9.94263 15.3953 9.84431L15.3975 9.83446L12.7688 9.17804L12.2618 11.214C12.2618 11.214 13.676 11.5381 13.6462 11.5581C14.4181 11.7507 14.5577 12.2617 14.5345 12.6667L13.6452 16.2341C13.6983 16.2476 13.7672 16.2671 13.8433 16.2977C13.7797 16.2819 13.7121 16.2647 13.6418 16.2479L12.3953 21.2452C12.301 21.4798 12.0615 21.8317 11.5219 21.6981C11.541 21.7257 10.1364 21.3523 10.1364 21.3523L9.19006 23.5343L11.6706 24.1526C12.1321 24.2684 12.5843 24.3894 13.0297 24.5033L12.2409 27.6706L14.1448 28.1456L14.926 25.0119C15.4461 25.1531 15.9509 25.2833 16.4451 25.4061L15.6665 28.525L17.5728 29L18.3615 25.8386C21.6119 26.4538 24.056 26.2058 25.0847 23.2658C25.9137 20.8987 25.0435 19.5334 23.3334 18.6431C24.5789 18.3558 25.5164 17.5364 25.7665 15.8442ZM21.4114 21.9512C20.8223 24.3183 16.8369 23.0387 15.5448 22.7179L16.5915 18.5218C17.8836 18.8443 22.0269 19.4827 21.4114 21.9512ZM22.0009 15.8099C21.4635 17.963 18.1464 16.8691 17.0704 16.6009L18.0194 12.7953C19.0954 13.0635 22.5605 13.5641 22.0009 15.8099Z" fill="white"/>
</svg>
