<svg width="24" height="24" viewBox="0 0 32 33" fill="none" xmlns="http://www.w3.org/2000/svg">
<path d="M26.8 11.7V27.2916C26.8011 27.4492 26.7712 27.6054 26.7119 27.7515C26.6526 27.8975 26.5651 28.0304 26.4545 28.1426C26.3438 28.2548 26.2122 28.3441 26.067 28.4054C25.9218 28.4668 25.766 28.4989 25.6084 28.5H6.39161C6.07579 28.5 5.77288 28.3746 5.54945 28.1514C5.32601 27.9282 5.20033 27.6254 5.20001 27.3096V5.6904C5.20001 5.046 5.73881 4.5 6.40241 4.5H19.5964L26.8 11.7ZM24.4 12.9H18.4V6.9H7.60001V26.1H24.4V12.9ZM11.2 10.5H14.8V12.9H11.2V10.5ZM11.2 15.3H20.8V17.7H11.2V15.3ZM11.2 20.1H20.8V22.5H11.2V20.1Z" fill="white"/>
</svg>
