<svg width="100%" height="100%" viewBox="0 0 40 41" fill="none" xmlns="http://www.w3.org/2000/svg">
<path d="M16.25 20.5C17.6307 20.5 18.75 19.3807 18.75 18C18.75 16.6193 17.6307 15.5 16.25 15.5C14.8693 15.5 13.75 16.6193 13.75 18C13.75 19.3807 14.8693 20.5 16.25 20.5ZM31.875 13.625L20 6.75L8.125 13.625V27.375L20 34.25L31.875 27.375V13.625ZM20 9.63875L29.375 15.0664V23.6672L23.6724 20.2458L13.7084 27.7188L10.625 25.9336V15.0664L20 9.63875ZM20 31.3612L16.0599 29.0801L23.8276 23.2542L28.8244 26.2524L20 31.3612Z" fill="white"/>
</svg>
