<svg width="100%" height="100%" viewBox="0 0 36 37" fill="none" xmlns="http://www.w3.org/2000/svg">
<path d="M22.05 9.05H24.75C25.4661 9.05 26.1528 9.33446 26.6592 9.84081C27.1655 10.3472 27.45 11.0339 27.45 11.75V22.7795C28.3511 23.098 29.1106 23.7248 29.5943 24.5491C30.0779 25.3734 30.2546 26.3422 30.093 27.2842C29.9315 28.2261 29.4421 29.0807 28.7114 29.6967C27.9807 30.3128 27.0557 30.6507 26.1 30.6507C25.1443 30.6507 24.2193 30.3128 23.4886 29.6967C22.7579 29.0807 22.2685 28.2261 22.1069 27.2842C21.9454 26.3422 22.122 25.3734 22.6057 24.5491C23.0894 23.7248 23.8489 23.098 24.75 22.7795V11.75H22.05V15.8L15.975 10.4L22.05 5V9.05ZM8.54999 14.2205C7.64888 13.902 6.88936 13.2752 6.40571 12.4509C5.92205 11.6266 5.74538 10.6578 5.90695 9.71584C6.06851 8.77385 6.55789 7.91932 7.28859 7.30327C8.01929 6.68723 8.94425 6.34934 9.89999 6.34934C10.8557 6.34934 11.7807 6.68723 12.5114 7.30327C13.2421 7.91932 13.7315 8.77385 13.893 9.71584C14.0546 10.6578 13.8779 11.6266 13.3943 12.4509C12.9106 13.2752 12.1511 13.902 11.25 14.2205V22.7795C12.1511 23.098 12.9106 23.7248 13.3943 24.5491C13.8779 25.3734 14.0546 26.3422 13.893 27.2842C13.7315 28.2261 13.2421 29.0807 12.5114 29.6967C11.7807 30.3128 10.8557 30.6507 9.89999 30.6507C8.94425 30.6507 8.01929 30.3128 7.28859 29.6967C6.55789 29.0807 6.06851 28.2261 5.90695 27.2842C5.74538 26.3422 5.92205 25.3734 6.40571 24.5491C6.88936 23.7248 7.64888 23.098 8.54999 22.7795V14.2205Z" fill="white"/>
</svg>
