<svg width="100%" height="100%" viewBox="0 0 132 32" fill="none" xmlns="http://www.w3.org/2000/svg">
<path d="M24 16C24 20.5562 21.9855 24.25 19.5 24.25L16.5 24.25C14.0145 24.25 12 20.5562 12 16C12 11.5247 13.9432 7.882 16.3672 7.75375L16.5 7.75L19.5 7.75C21.9855 7.75 24 11.4437 24 16ZM15 16C15 13.21 15.7553 10.7425 16.9125 9.25L16.5 9.25C15.0885 9.25 13.5 12.1622 13.5 16C13.5 19.7575 15.0225 22.6285 16.4115 22.7462L16.5 22.75L16.9125 22.7507C15.756 21.2582 15 18.7907 15 16ZM22.5 16C22.5 12.1622 20.9115 9.25 19.5 9.25C18.0885 9.25 16.5 12.1622 16.5 16C16.5 19.8377 18.0885 22.75 19.5 22.75C20.9115 22.75 22.5 19.8377 22.5 16Z" fill="#FF6900"/>
<path d="M33.72 23V8.8H38.82C40.5267 8.8 41.8133 9.10667 42.68 9.72C43.5467 10.3333 43.98 11.3067 43.98 12.64C43.98 13.24 43.8533 13.7667 43.6 14.22C43.3467 14.6733 42.9733 15.0333 42.48 15.3C42 15.5533 41.4267 15.6867 40.76 15.7L40.74 15.62C41.9533 15.6467 42.8933 15.98 43.56 16.62C44.24 17.2467 44.58 18.0733 44.58 19.1C44.58 20.3933 44.1467 21.3667 43.28 22.02C42.4133 22.6733 41.18 23 39.58 23H33.72ZM35.88 21.06H39.52C40.4133 21.06 41.1067 20.88 41.6 20.52C42.1067 20.1467 42.36 19.6067 42.36 18.9C42.36 18.2067 42.1067 17.6667 41.6 17.28C41.1067 16.8933 40.4133 16.7 39.52 16.7H35.88V21.06ZM35.88 14.86H38.78C39.7267 14.86 40.46 14.68 40.98 14.32C41.5 13.96 41.76 13.4533 41.76 12.8C41.76 12.1067 41.5067 11.5933 41 11.26C40.5067 10.9133 39.7667 10.74 38.78 10.74H35.88V14.86ZM49.2156 23C48.5223 23 47.9623 22.82 47.5356 22.46C47.109 22.1 46.8956 21.5267 46.8956 20.74V8.8H49.0156V20.54C49.0156 20.78 49.0756 20.96 49.1956 21.08C49.329 21.2 49.5156 21.26 49.7556 21.26H50.5956V23H49.2156ZM56.6634 23.24C55.6501 23.24 54.7634 23.0133 54.0034 22.56C53.2434 22.1067 52.6568 21.46 52.2434 20.62C51.8301 19.78 51.6234 18.8 51.6234 17.68C51.6234 16.5467 51.8301 15.5667 52.2434 14.74C52.6568 13.9133 53.2434 13.2733 54.0034 12.82C54.7634 12.3533 55.6501 12.12 56.6634 12.12C57.6768 12.12 58.5634 12.3533 59.3234 12.82C60.0834 13.2733 60.6701 13.9133 61.0834 14.74C61.4968 15.5667 61.7034 16.5467 61.7034 17.68C61.7034 18.8 61.4968 19.78 61.0834 20.62C60.6701 21.46 60.0834 22.1067 59.3234 22.56C58.5634 23.0133 57.6768 23.24 56.6634 23.24ZM56.6634 21.4C57.5701 21.4 58.2701 21.0733 58.7634 20.42C59.2568 19.7533 59.5034 18.84 59.5034 17.68C59.5034 16.52 59.2568 15.6133 58.7634 14.96C58.2701 14.2933 57.5701 13.96 56.6634 13.96C55.7701 13.96 55.0701 14.2933 54.5634 14.96C54.0701 15.6133 53.8234 16.52 53.8234 17.68C53.8234 18.84 54.0701 19.7533 54.5634 20.42C55.0701 21.0733 55.7701 21.4 56.6634 21.4ZM68.1059 23.24C67.0926 23.24 66.2059 23.0133 65.4459 22.56C64.6859 22.1067 64.0993 21.46 63.6859 20.62C63.2726 19.78 63.0659 18.8 63.0659 17.68C63.0659 16.56 63.2726 15.5867 63.6859 14.76C64.0993 13.92 64.6859 13.2733 65.4459 12.82C66.2059 12.3533 67.0926 12.12 68.1059 12.12C68.9726 12.12 69.7393 12.2733 70.4059 12.58C71.0859 12.8733 71.6326 13.3067 72.0459 13.88C72.4726 14.4533 72.7459 15.1533 72.8659 15.98L70.6459 16.1C70.5393 15.4067 70.2593 14.88 69.8059 14.52C69.3526 14.1467 68.7859 13.96 68.1059 13.96C67.2126 13.96 66.5126 14.2933 66.0059 14.96C65.5126 15.6133 65.2659 16.52 65.2659 17.68C65.2659 18.84 65.5126 19.7533 66.0059 20.42C66.5126 21.0733 67.2126 21.4 68.1059 21.4C68.7859 21.4 69.3526 21.2133 69.8059 20.84C70.2593 20.4533 70.5393 19.8733 70.6459 19.1L72.8659 19.22C72.7459 20.0333 72.4726 20.74 72.0459 21.34C71.6326 21.94 71.0859 22.4067 70.4059 22.74C69.7393 23.0733 68.9726 23.24 68.1059 23.24ZM74.6802 23V8.8H76.8002V17.62L81.5802 12.36H84.2602L80.1002 16.84L84.4202 23H81.9802L78.6802 18.16L76.8002 20.16V23H74.6802ZM85.9716 23V8.8H88.1316V23H85.9716ZM95.4217 23.24C94.4084 23.24 93.5217 23.0133 92.7617 22.56C92.0017 22.1067 91.4151 21.46 91.0017 20.62C90.5884 19.78 90.3817 18.8 90.3817 17.68C90.3817 16.56 90.5884 15.5867 91.0017 14.76C91.4151 13.92 92.0017 13.2733 92.7617 12.82C93.5217 12.3533 94.4084 12.12 95.4217 12.12C96.2884 12.12 97.0551 12.2733 97.7217 12.58C98.4017 12.8733 98.9484 13.3067 99.3617 13.88C99.7884 14.4533 100.062 15.1533 100.182 15.98L97.9617 16.1C97.8551 15.4067 97.5751 14.88 97.1217 14.52C96.6684 14.1467 96.1017 13.96 95.4217 13.96C94.5284 13.96 93.8284 14.2933 93.3217 14.96C92.8284 15.6133 92.5817 16.52 92.5817 17.68C92.5817 18.84 92.8284 19.7533 93.3217 20.42C93.8284 21.0733 94.5284 21.4 95.4217 21.4C96.1017 21.4 96.6684 21.2133 97.1217 20.84C97.5751 20.4533 97.8551 19.8733 97.9617 19.1L100.182 19.22C100.062 20.0333 99.7884 20.74 99.3617 21.34C98.9484 21.94 98.4017 22.4067 97.7217 22.74C97.0551 23.0733 96.2884 23.24 95.4217 23.24ZM106.376 23.24C105.363 23.24 104.476 23.0133 103.716 22.56C102.956 22.1067 102.369 21.46 101.956 20.62C101.543 19.78 101.336 18.8 101.336 17.68C101.336 16.5467 101.543 15.5667 101.956 14.74C102.369 13.9133 102.956 13.2733 103.716 12.82C104.476 12.3533 105.363 12.12 106.376 12.12C107.389 12.12 108.276 12.3533 109.036 12.82C109.796 13.2733 110.383 13.9133 110.796 14.74C111.209 15.5667 111.416 16.5467 111.416 17.68C111.416 18.8 111.209 19.78 110.796 20.62C110.383 21.46 109.796 22.1067 109.036 22.56C108.276 23.0133 107.389 23.24 106.376 23.24ZM106.376 21.4C107.283 21.4 107.983 21.0733 108.476 20.42C108.969 19.7533 109.216 18.84 109.216 17.68C109.216 16.52 108.969 15.6133 108.476 14.96C107.983 14.2933 107.283 13.96 106.376 13.96C105.483 13.96 104.783 14.2933 104.276 14.96C103.783 15.6133 103.536 16.52 103.536 17.68C103.536 18.84 103.783 19.7533 104.276 20.42C104.783 21.0733 105.483 21.4 106.376 21.4ZM113.438 23V12.36H115.378L115.458 15.2L115.198 15.06C115.318 14.3667 115.545 13.8067 115.878 13.38C116.212 12.9533 116.618 12.64 117.098 12.44C117.578 12.2267 118.098 12.12 118.658 12.12C119.458 12.12 120.118 12.3 120.638 12.66C121.172 13.0067 121.572 13.4867 121.838 14.1C122.118 14.7 122.258 15.3867 122.258 16.16V23H120.138V16.8C120.138 16.1733 120.072 15.6467 119.938 15.22C119.805 14.7933 119.585 14.4667 119.278 14.24C118.972 14.0133 118.572 13.9 118.078 13.9C117.332 13.9 116.725 14.1467 116.258 14.64C115.792 15.1333 115.558 15.8533 115.558 16.8V23H113.438Z" fill="white"/>
</svg>
