<svg width="36" height="36" viewBox="0 0 36 36" fill="none" xmlns="http://www.w3.org/2000/svg">
<rect width="36" height="36" fill="#2775CA"/>
<path d="M22.578 20.4274C22.578 17.9997 21.1214 17.1673 18.2081 16.8206C16.1272 16.543 15.711 15.9882 15.711 15.017C15.711 14.0457 16.4047 13.4216 17.7919 13.4216C19.0405 13.4216 19.7341 13.8378 20.0809 14.8783C20.1503 15.0864 20.3584 15.2251 20.5665 15.2251H21.6762C21.9537 15.2251 22.1618 15.017 22.1618 14.7396V14.6702C21.8843 13.1441 20.6358 11.965 19.0405 11.8263V10.1615C19.0405 9.88403 18.8324 9.67594 18.4856 9.60652H17.4451C17.1676 9.60652 16.9595 9.81461 16.8901 10.1615V11.7569C14.8092 12.0344 13.4914 13.4216 13.4914 15.1558C13.4914 17.4448 14.8786 18.3465 17.7919 18.6934C19.7341 19.0402 20.3584 19.4564 20.3584 20.5662C20.3584 21.6761 19.3872 22.4391 18.0694 22.4391C16.2658 22.4391 15.6416 21.676 15.4335 20.6355C15.3642 20.3581 15.1561 20.2193 14.948 20.2193H13.7687C13.4914 20.2193 13.2833 20.4274 13.2833 20.7049V20.7743C13.5606 22.5083 14.6705 23.7569 16.9595 24.1038V25.7686C16.9595 26.0459 17.1676 26.254 17.5144 26.3235H18.5548C18.8324 26.3235 19.0405 26.1154 19.1099 25.7686V24.1038C21.1908 23.7569 22.578 22.3003 22.578 20.4274Z" fill="white"/>
<path d="M14.4624 27.711C9.05199 25.7689 6.27735 19.7342 8.28903 14.393C9.3295 11.4797 11.6185 9.26008 14.4624 8.21961C14.7399 8.08093 14.8786 7.87284 14.8786 7.52591V6.55486C14.8786 6.27735 14.7399 6.06925 14.4624 6C14.393 6 14.2543 6 14.1849 6.06925C7.59533 8.15019 3.98832 15.1561 6.06926 21.7457C7.31782 25.63 10.3005 28.6128 14.1849 29.8613C14.4624 30 14.7399 29.8613 14.8092 29.5838C14.8786 29.5146 14.8786 29.4451 14.8786 29.3065V28.3353C14.8786 28.1272 14.6705 27.8498 14.4624 27.711ZM21.8151 6.06925C21.5376 5.93058 21.2601 6.06925 21.1908 6.34677C21.1214 6.41619 21.1214 6.48544 21.1214 6.62428V7.59533C21.1214 7.87284 21.3295 8.15019 21.5376 8.28903C26.948 10.2311 29.7227 16.2658 27.711 21.607C26.6705 24.5203 24.3815 26.7399 21.5376 27.7804C21.2601 27.9191 21.1214 28.1272 21.1214 28.4741V29.4451C21.1214 29.7227 21.2601 29.9307 21.5376 30C21.607 30 21.7457 30 21.8151 29.9307C28.4047 27.8498 32.0117 20.8439 29.9308 14.2543C28.6822 10.3005 25.63 7.31781 21.8151 6.06925Z" fill="white"/>
</svg>
