<svg width="100%" height="100%" viewBox="0 0 14 14" fill="none" xmlns="http://www.w3.org/2000/svg">
<path d="M10.947 5.0763C10.8199 5.0324 10.6882 4.99087 10.5526 4.95159C10.5749 4.86032 10.5954 4.77024 10.6135 4.68168C10.912 3.22757 10.7169 2.05613 10.0504 1.67044C9.41135 1.30061 8.36623 1.68621 7.3107 2.60805C7.2092 2.69669 7.10741 2.79055 7.00567 2.8889C6.93788 2.82383 6.8702 2.76094 6.80269 2.70079C5.69646 1.7151 4.58764 1.29972 3.92183 1.68652C3.28339 2.05742 3.09432 3.15869 3.36302 4.53676C3.38897 4.66987 3.4193 4.8058 3.4536 4.944C3.29667 4.98871 3.14517 5.03636 3.00021 5.08706C1.70328 5.54083 0.875 6.25199 0.875 6.98964C0.875 7.7515 1.76416 8.51566 3.11501 8.97901C3.22161 9.01557 3.33223 9.05015 3.44623 9.08297C3.40922 9.23244 3.37704 9.37892 3.35002 9.52179C3.09382 10.8759 3.2939 11.9512 3.93064 12.3197C4.58834 12.7004 5.69215 12.3091 6.76697 11.3663C6.85192 11.2918 6.93718 11.2127 7.02259 11.1299C7.13329 11.2369 7.24382 11.3381 7.35376 11.4331C8.39486 12.3321 9.42311 12.6952 10.0593 12.3256C10.7163 11.9439 10.9298 10.7888 10.6526 9.38347C10.6314 9.27614 10.6068 9.16649 10.5791 9.05489C10.6566 9.0319 10.7327 9.00815 10.8069 8.98347C12.2113 8.51654 13.125 7.76168 13.125 6.98964C13.125 6.24932 12.27 5.53337 10.947 5.0763ZM10.6424 8.48498C10.5754 8.50724 10.5067 8.52875 10.4366 8.5496C10.2816 8.05706 10.0723 7.53332 9.81629 6.9922C10.0606 6.46398 10.2618 5.94693 10.4125 5.45759C10.5378 5.49398 10.6594 5.53236 10.7766 5.57286C11.9102 5.96448 12.6017 6.5435 12.6017 6.98964C12.6017 7.46487 11.8549 8.08179 10.6424 8.48498ZM10.1392 9.48546C10.2618 10.1069 10.2793 10.6687 10.1981 11.1079C10.1252 11.5026 9.97845 11.7657 9.79704 11.8711C9.41098 12.0954 8.58541 11.8039 7.69505 11.035C7.59298 10.9468 7.49017 10.8527 7.38704 10.7531C7.73221 10.3743 8.07718 9.93386 8.41387 9.44474C9.00607 9.39201 9.56556 9.30579 10.0729 9.18809C10.0979 9.28925 10.1201 9.38846 10.1392 9.48546ZM5.0513 11.8324C4.67412 11.966 4.37372 11.9699 4.19213 11.8648C3.80572 11.6411 3.64509 10.7778 3.8642 9.61973C3.8893 9.4871 3.91917 9.35087 3.9536 9.21161C4.45542 9.32297 5.01081 9.4031 5.60443 9.45139C5.94338 9.93001 6.29832 10.3699 6.65601 10.7552C6.57786 10.8309 6.50002 10.9029 6.42261 10.9709C5.94733 11.3878 5.47105 11.6836 5.0513 11.8324ZM3.28426 8.48207C2.68694 8.27719 2.19365 8.01091 1.85552 7.72034C1.55169 7.45923 1.39829 7.19999 1.39829 6.98964C1.39829 6.54201 2.06332 5.97105 3.17247 5.58297C3.30705 5.53588 3.44793 5.49151 3.59413 5.44982C3.74742 5.95021 3.9485 6.47339 4.19117 7.00242C3.94536 7.53932 3.74142 8.07083 3.58663 8.57708C3.4824 8.54702 3.38142 8.51538 3.28426 8.48207ZM3.87659 4.4359C3.64637 3.25521 3.79927 2.36453 4.18401 2.14103C4.59384 1.90293 5.50007 2.24241 6.45521 3.0935C6.51626 3.1479 6.57755 3.20483 6.63902 3.26374C6.2831 3.64726 5.93141 4.08389 5.59546 4.55969C5.01934 4.61328 4.46785 4.69936 3.9608 4.81464C3.92892 4.68595 3.90068 4.55952 3.87659 4.4359ZM9.16068 5.74529C9.03947 5.53518 8.91503 5.33004 8.78817 5.1305C9.17902 5.18008 9.5535 5.2459 9.90517 5.32645C9.79959 5.66601 9.668 6.02105 9.51309 6.38501C9.40198 6.1733 9.28445 5.95984 9.16068 5.74529ZM7.00584 3.63906C7.24722 3.90149 7.48895 4.19448 7.72671 4.51238C7.48712 4.50103 7.24456 4.49512 7 4.49512C6.75775 4.49512 6.51698 4.50089 6.27887 4.51205C6.51687 4.19711 6.76069 3.90451 7.00584 3.63906ZM4.8372 5.74892C4.71612 5.95962 4.60077 6.17192 4.4914 6.38461C4.339 6.02192 4.20863 5.66527 4.10214 5.32089C4.45165 5.2424 4.82436 5.17822 5.21272 5.12958C5.08407 5.33096 4.95861 5.53761 4.8372 5.74888V5.74892ZM5.22391 8.88717C4.82266 8.84225 4.44434 8.78137 4.09492 8.70505C4.20312 8.35452 4.33636 7.99026 4.49199 7.61975C4.60164 7.83229 4.71745 8.04468 4.83927 8.25584H4.83929C4.96338 8.47096 5.09195 8.68168 5.22391 8.88717ZM7.02032 10.3773C6.77229 10.1087 6.52489 9.81163 6.28328 9.49209C6.51783 9.50133 6.75696 9.50605 7 9.50605C7.24969 9.50605 7.49652 9.50041 7.73947 9.48955C7.50092 9.81485 7.26007 10.1124 7.02032 10.3773ZM9.51809 7.60087C9.68182 7.97538 9.81985 8.33774 9.92944 8.68229C9.57426 8.7636 9.19078 8.8291 8.78673 8.87776C8.9139 8.67553 9.03943 8.46686 9.16278 8.25222C9.28757 8.03507 9.40605 7.81759 9.51809 7.60087ZM8.70948 7.98986C8.51799 8.32306 8.32139 8.64113 8.12182 8.94137C7.75831 8.96745 7.38276 8.98089 7 8.98089C6.61879 8.98089 6.24797 8.96901 5.8909 8.94575C5.68327 8.64157 5.48241 8.32255 5.29214 7.99273H5.29218C5.10241 7.6638 4.92776 7.33209 4.7695 7.00225C4.92771 6.67164 5.10191 6.33956 5.29059 6.01122L5.29054 6.01129C5.47972 5.68207 5.67882 5.36461 5.88453 5.06234C6.24885 5.0347 6.62243 5.02028 6.99998 5.02028H7C7.37925 5.02028 7.75331 5.03481 8.11752 5.06269C8.32009 5.36275 8.51783 5.67919 8.70775 6.00844C8.89983 6.3414 9.07628 6.67126 9.23585 6.99479C9.07676 7.32387 8.90071 7.65706 8.70948 7.98986ZM9.78901 2.1254C10.1992 2.3628 10.3588 3.32022 10.101 4.57569C10.0846 4.6558 10.0661 4.73739 10.046 4.82008C9.53773 4.7024 8.98585 4.61483 8.40805 4.56043C8.07145 4.07941 7.72263 3.6421 7.37251 3.2635C7.46665 3.17262 7.56065 3.08597 7.65425 3.0042C8.55863 2.21438 9.4039 1.90254 9.78901 2.1254ZM7 5.8919C7.60412 5.8919 8.09388 6.38336 8.09388 6.98964C8.09388 7.5959 7.60412 8.08739 7 8.08739C6.39587 8.08739 5.90612 7.5959 5.90612 6.98964C5.90612 6.38336 6.39587 5.8919 7 5.8919Z" fill="#00D8FF"/>
</svg>
